grf
version=1
nRows=12
nColumns=28
inDegrees=no
endheader
time	ground_force_1_vx	ground_force_1_vy	ground_force_1_vz	ground_force_1_px	ground_force_1_py	ground_force_1_pz	ground_moment_1_mx	ground_moment_1_my	ground_moment_1_mz	ground_force_2_vx	ground_force_2_vy	ground_force_2_vz	ground_force_2_px	ground_force_2_py	ground_force_2_pz	ground_moment_2_mx	ground_moment_2_my	ground_moment_2_mz	ground_force_3_vx	ground_force_3_vy	ground_force_3_vz	ground_force_3_px	ground_force_3_py	ground_force_3_pz	ground_moment_3_mx	ground_moment_3_my	ground_moment_3_mz
      0.44000000	      0.67053322	      0.43383749	      1.30744027	    310.08880096	  -1406.90108733	      2.29712174	      0.02319920	      0.08388862	     45.96644770	     33.15572212	     24.24926574	   -680.36467420	    438.58681568	  -1749.12225268	      0.14676492	      0.16649119	      2.15322025	  -2580.14659705	      1.58050092	     -1.08573462	      4.84380530	    452.56276932	   -332.10325575	      0.48047346	     -0.08090274	      0.59430561	    289.39126215
      0.45000000	      0.40425157	      0.32062471	      1.66068561	    345.64424483	  -1413.97014406	      2.29207796	      0.05651720	      0.20436693	    111.98207610	     33.67922105	     28.50643857	   -733.00263179	    438.94923668	  -1745.25527702	      0.15001543	      0.19680856	      2.54531292	  -3049.98081601	      1.58177724	     -0.81378163	      4.79112587	    427.25884492	   -319.44859188	      0.44741132	     -0.09447523	      0.69400811	    337.94041076
      0.46000000	      0.73607343	      0.13037414	      1.75540843	    386.06106592	  -1343.75466314	      2.14353662	      0.00988651	      0.03574973	     19.58892770	     32.89954489	     34.49445632	   -790.31551486	    439.21944952	  -1741.80484608	      0.15291237	      0.24581117	      3.17906057	  -3809.38377725	      1.67648485	     -0.81593817	      4.80634180	    462.56009366	   -321.43418132	      0.46135788	     -0.11419239	      0.83884894	    408.46922774
      0.47000000	      0.59137071	      0.07761152	      1.28591622	    361.74080910	  -1430.00145923	      2.31321115	      0.01371640	      0.04959868	     27.17740637	     32.09341286	     43.23160926	   -850.46621807	    439.62905421	  -1739.20030677	      0.15511238	      0.29448073	      3.80850098	  -4563.62550012	      1.53094814	     -0.86062274	      5.28965499	    448.85899132	   -312.07367106	      0.43830446	     -0.09551347	      0.70163499	    341.65424706
      0.48000000	      0.52158990	      0.09977043	      1.89764417	    402.07944855	  -1351.42497785	      2.14945046	      0.03391799	      0.12264789	     67.20443855	     31.30429417	     56.21039000	   -911.50004697	    440.06385660	  -1736.91579953	      0.15704693	      0.34104959	      4.41077319	  -5285.31227611	      1.63967463	     -0.86588869	      5.42642666	    455.67670687	   -318.65844986	      0.45373320	     -0.07505240	      0.55132944	    268.46444022
      0.49000000	      0.71156013	      0.09830095	      1.09374802	    470.64112209	  -1517.16619978	      2.41732468	     -0.04366179	     -0.15788158	    -86.51060460	     33.03220480	     70.35009474	   -971.68210887	    440.38761399	  -1734.84167267	      0.15879875	      0.37394782	      4.83624390	  -5795.14252526	      1.71789276	     -0.70679739	      5.12599385	    423.74063490	   -310.45218628	      0.42795238	     -0.10783148	      0.79212217	    385.71608344
      0.50000000	      0.80895775	      0.07775485	      1.81924127	    375.70181889	  -1320.00018924	      2.10541307	      0.05825489	      0.21065042	    115.42508682	     36.75722060	     90.24295859	  -1028.50304240	    440.51423547	  -1733.11000427	      0.16025206	      0.36479120	      4.71782191	  -5653.24060262	      1.46436997	     -1.05085474	      5.42064829	    481.82564843	   -341.95134675	      0.50887868	     -0.08416626	      0.61827917	    301.06494822
      0.51000000	      0.50996420	      0.08233968	      1.91876477	    404.77929666	  -1346.49219496	      2.13908554	      0.05766283	      0.20850953	    114.25199403	     43.07654073	    109.89443331	  -1077.42046074	    440.44823663	  -1731.26059222	      0.16179120	      0.33754931	      4.36550430	  -5231.06777252	      1.48463175	     -0.90570250	      5.35154973	    466.60537454	   -314.32851498	      0.44789630	     -0.10165386	      0.74674182	    363.61856981
      0.52000000	      0.75737570	      0.29050737	      1.94528789	    395.98465970	  -1444.74054716	      2.32282711	     -0.00863634	     -0.03122912	    -17.11187543	     48.03300669	    130.05941992	  -1116.72780099	    440.43165408	  -1729.24805954	      0.16346966	      0.30623277	      3.96048942	  -4745.74920288	      1.56044767	     -0.93309924	      4.66166965	    492.60846045	   -319.63773222	      0.46606900	     -0.11967303	      0.87910936	    428.07364130
      0.53000000	      0.63185612	      0.10468816	      1.54952526	    437.80502100	  -1449.97234448	      2.31126845	     -0.01063246	     -0.03844710	    -21.06694287	     52.88369320	    149.12385425	  -1147.47989665	    440.50715143	  -1727.22543197	      0.16516248	      0.26500445	      3.42728608	  -4106.82581116	      1.77951424	     -0.93099404	      5.12731911	    458.43302751	   -321.27456404	      0.45987632	     -0.09697141	      0.71234487	    346.86931667
      0.54000000	      0.88682629	      0.11652813	      1.47784664	    464.40925909	  -1519.45898210	      2.42465422	     -0.06198587	     -0.22414172	   -122.81759379	     54.87579093	    169.61760762	  -1166.62227330	    440.77365553	  -1724.93038311	      0.16709497	      0.21322122	      2.75757678	  -3304.33096459	      1.69600461	     -1.05823140	      5.14697125	    470.23823187	   -288.61940443	      0.39611464	     -0.14729112	      1.08198980	    526.86426931
      0.55000000	      0.89028715	     -0.08373066	      2.13401068	    412.26502020	  -1388.18911007	      2.21140424	      0.00330248	      0.01194182	      6.54347319	     57.62350238	    188.30493525	  -1175.04649564	    441.00131487	  -1722.86619791	      0.16883230	      0.16098357	      2.08199050	  -2494.79387469	      1.81810599	     -0.77225878	      5.18279798	    442.54337229	   -313.58650500	      0.43964567	     -0.10594914	      0.77829462	    378.98289441
